<?xml version="1.0" encoding="utf-8"?>
<!-- Generator: Adobe Illustrator 24.0.3, SVG Export Plug-In . SVG Version: 6.00 Build 0)  -->
<svg version="1.1" id="Calque_1" xmlns="http://www.w3.org/2000/svg" xmlns:xlink="http://www.w3.org/1999/xlink" x="0px" y="0px"
	 viewBox="0 0 555 599.25" style="enable-background:new 0 0 555 599.25;" xml:space="preserve">
<style type="text/css">
	.st0{fill:#1D1D1B;}
</style>
<g>
	<path class="st0" d="M443.45,207.68c-34.07-59.12-97.71-95.85-165.92-95.85s-131.78,36.73-165.99,95.85
		c-16.8,28.96-25.64,62.1-25.64,95.78c0,28.16,5.98,55.26,17.73,80.5c11.96,25.71,29.76,48.89,51.54,66.95
		c0.07,0.13,0.2,0.2,0.27,0.27c34.14,28.3,77.51,43.9,122.08,43.9c105.61,0,191.63-85.95,191.63-191.63
		C469.15,269.79,460.25,236.64,443.45,207.68z M109.68,381.18c-11.42-24.38-17.14-50.55-17.14-77.71c0-30.55,7.57-60.64,21.92-87.41
		l86.75,150.25l-44.57,77.18C136.85,426.41,120.71,404.96,109.68,381.18z M275.6,488.38c-41.45-0.4-81.63-14.75-113.78-40.58
		l46.1-79.84l69.61-120.56l68.61,118.89L275.6,488.38z M283.37,488.32l69.48-120.36l87.68-151.91
		c14.35,26.77,21.99,56.86,21.99,87.41C462.51,403.49,382.67,485.26,283.37,488.32z"/>
	<g>
		<path class="st0" d="M209.33,562.36c-2.18,1.41-4.4,2.24-6.69,2.52c-2.29,0.27-4.59,0.04-6.91-0.69c-2.46-0.77-4.6-1.91-6.43-3.4
			c-1.83-1.5-3.25-3.24-4.26-5.22c-1.01-1.98-1.6-4.13-1.79-6.47c-0.19-2.33,0.11-4.72,0.9-7.19c0.77-2.46,1.91-4.59,3.39-6.4
			c1.49-1.8,3.2-3.22,5.17-4.27c1.97-1.04,4.13-1.64,6.49-1.82c2.35-0.18,4.75,0.12,7.22,0.9c2.37,0.74,4.41,1.93,6.12,3.54
			c1.72,1.61,3.08,3.55,4.11,5.81l-4.13,1.46c-0.78-1.73-1.77-3.2-2.96-4.44c-1.21-1.21-2.65-2.1-4.31-2.61
			c-1.95-0.61-3.83-0.82-5.63-0.62c-1.8,0.19-3.44,0.71-4.93,1.54c-1.48,0.84-2.78,1.97-3.86,3.38c-1.09,1.42-1.92,3.04-2.48,4.85
			c-0.58,1.81-0.82,3.61-0.75,5.39c0.08,1.79,0.49,3.45,1.23,4.99c0.75,1.53,1.8,2.9,3.15,4.09c1.37,1.2,3.02,2.1,4.97,2.72
			c1.76,0.55,3.51,0.66,5.23,0.3c1.72-0.34,3.32-1.02,4.81-2.04L209.33,562.36z"/>
		<path class="st0" d="M216.42,551.92c0.42-2.55,1.23-4.82,2.45-6.81c1.22-2,2.72-3.66,4.52-4.96c1.79-1.3,3.84-2.22,6.14-2.72
			c2.31-0.51,4.74-0.56,7.28-0.14c2.54,0.42,4.81,1.24,6.81,2.45c2,1.23,3.65,2.74,4.96,4.55c1.3,1.82,2.22,3.88,2.72,6.15
			c0.52,2.28,0.56,4.7,0.14,7.25c-0.42,2.56-1.24,4.82-2.45,6.81c-1.22,2-2.74,3.65-4.56,4.96c-1.82,1.31-3.87,2.22-6.14,2.74
			c-2.28,0.51-4.7,0.56-7.25,0.13c-2.55-0.42-4.84-1.23-6.85-2.46c-2.02-1.22-3.68-2.74-4.96-4.55c-1.28-1.82-2.18-3.86-2.69-6.14
			C216.05,556.88,216,554.47,216.42,551.92z M220.74,552.63c-0.3,1.87-0.3,3.69,0.03,5.45c0.32,1.76,0.97,3.34,1.92,4.75
			c0.95,1.41,2.18,2.63,3.7,3.61c1.51,0.99,3.28,1.65,5.29,1.98c2.02,0.33,3.9,0.27,5.66-0.18c1.75-0.45,3.31-1.19,4.66-2.24
			c1.36-1.03,2.48-2.33,3.34-3.89c0.88-1.56,1.47-3.28,1.78-5.16c0.31-1.87,0.3-3.68-0.03-5.44c-0.33-1.75-0.97-3.35-1.92-4.77
			c-0.95-1.41-2.19-2.61-3.7-3.6s-3.28-1.65-5.3-1.98c-2.02-0.33-3.91-0.27-5.66,0.19c-1.75,0.44-3.3,1.19-4.66,2.22
			c-1.35,1.03-2.47,2.34-3.34,3.89C221.64,549.05,221.05,550.76,220.74,552.63z"/>
		<path class="st0" d="M261.93,544.98l-7.01-0.36l0.21-3.94l7,0.37l0.58-11.01c0.1-2.19,0.54-3.99,1.26-5.38
			c0.73-1.4,1.61-2.52,2.63-3.34c1.02-0.82,2.13-1.38,3.35-1.69c1.21-0.3,2.35-0.42,3.41-0.36c2.04,0.1,3.71,0.49,5,1.14l-1.08,3.75
			c-0.95-0.54-2.25-0.86-3.9-0.95c-3.94-0.2-6.06,2.69-6.38,8.67l-0.49,9.42l7.89,0.42l-0.21,3.93l-7.88-0.41l-1.56,29.77
			l-4.38-0.23L261.93,544.98z"/>
		<path class="st0" d="M285.12,545.38l-7.01,0.27l-0.16-3.94l7.01-0.27l-0.42-11.03c-0.08-2.18,0.18-4.01,0.77-5.47
			c0.6-1.46,1.38-2.65,2.31-3.55c0.95-0.92,2-1.58,3.18-1.99c1.18-0.41,2.3-0.64,3.37-0.67c2.04-0.08,3.74,0.15,5.07,0.67
			l-0.73,3.83c-0.99-0.45-2.32-0.65-3.97-0.58c-3.94,0.15-5.8,3.22-5.57,9.21l0.36,9.41l7.89-0.3l0.15,3.94l-7.89,0.3l1.15,29.8
			l-4.38,0.16L285.12,545.38z"/>
		<path class="st0" d="M333.6,563.67c-1.3,2.8-3.11,4.94-5.43,6.42c-2.32,1.48-4.98,2.43-7.97,2.88c-2.55,0.38-4.92,0.3-7.12-0.27
			c-2.2-0.56-4.16-1.51-5.9-2.86c-1.73-1.34-3.14-3.02-4.26-5.05c-1.12-2.02-1.86-4.35-2.25-6.94c-0.38-2.51-0.3-4.88,0.2-7.12
			c0.5-2.24,1.38-4.26,2.64-6.05c1.26-1.79,2.84-3.28,4.74-4.47c1.89-1.19,4.07-1.97,6.52-2.33c2.56-0.38,4.87-0.27,6.96,0.33
			c2.08,0.6,3.89,1.54,5.44,2.8c1.54,1.28,2.79,2.8,3.75,4.59c0.95,1.77,1.58,3.63,1.86,5.56l0.45,3.03l-28.04,4.17
			c0.13,0.91,0.49,2.06,1.06,3.42c0.57,1.37,1.44,2.65,2.61,3.87c1.15,1.2,2.62,2.17,4.38,2.89c1.76,0.73,3.91,0.9,6.47,0.52
			c2.22-0.32,4.28-1.18,6.19-2.55c1.92-1.36,3.3-3.05,4.13-5.04L333.6,563.67z M328.32,550.94c-0.22-1.5-0.73-2.85-1.53-4.06
			c-0.8-1.21-1.78-2.24-2.96-3.06c-1.19-0.84-2.53-1.44-4.03-1.8c-1.5-0.37-3.05-0.43-4.64-0.21c-2.36,0.35-4.26,1.13-5.68,2.33
			c-1.41,1.19-2.5,2.48-3.23,3.87c-0.73,1.39-1.2,2.7-1.41,3.94c-0.21,1.24-0.29,2.08-0.21,2.51L328.32,550.94z"/>
		<path class="st0" d="M371.3,553.06c-0.9,2.96-2.38,5.34-4.46,7.13c-2.09,1.78-4.57,3.12-7.47,3.98c-2.48,0.73-4.84,0.98-7.1,0.74
			s-4.34-0.91-6.24-1.99c-1.9-1.08-3.54-2.55-4.93-4.4c-1.39-1.85-2.46-4.03-3.22-6.54c-0.72-2.43-0.99-4.79-0.81-7.08
			c0.18-2.3,0.77-4.42,1.77-6.36c0.99-1.95,2.34-3.64,4.04-5.1c1.7-1.45,3.75-2.52,6.12-3.24c2.47-0.73,4.79-0.96,6.93-0.66
			c2.15,0.3,4.08,0.97,5.79,2.01c1.71,1.04,3.17,2.37,4.36,4c1.2,1.63,2.08,3.38,2.63,5.24l0.88,2.94l-27.17,8.11
			c0.26,0.88,0.77,1.96,1.54,3.24c0.76,1.27,1.8,2.42,3.13,3.46c1.32,1.02,2.91,1.77,4.75,2.24c1.84,0.46,4,0.33,6.48-0.42
			c2.14-0.64,4.07-1.77,5.77-3.39c1.7-1.63,2.82-3.49,3.37-5.58L371.3,553.06z M364.26,541.2c-0.43-1.44-1.12-2.7-2.09-3.8
			c-0.95-1.08-2.08-1.95-3.37-2.61c-1.28-0.66-2.7-1.06-4.24-1.21c-1.54-0.15-3.09,0.01-4.62,0.47c-2.29,0.68-4.05,1.71-5.3,3.1
			c-1.23,1.39-2.11,2.82-2.63,4.3c-0.53,1.47-0.8,2.83-0.84,4.1c-0.03,1.25,0.02,2.09,0.14,2.51L364.26,541.2z"/>
	</g>
	<g>
		<g>
			<g>
				<g>
					<path class="st0" d="M192.59,94.71l-8.8,2.83l-26.41-55.02l6.25-2.01l22.51,46.83l-9.33-50.98l6.33-2.02l22.1,46.96l-9.3-51.18
						l5.6-1.8l10.7,60.08l-8.47,2.71L185.7,53.83L192.59,94.71z"/>
					<path class="st0" d="M235.8,49.64l1.05,5.95l-14.55,2.56l3.73,21.17l17.86-3.14l1.06,6.05l-24.5,4.31l-10.47-59.53l24.49-4.31
						l1.06,6.03l-17.86,3.14l3.58,20.33L235.8,49.64z"/>
					<path class="st0" d="M251.73,81.57l-3.4-60.36l6.73-0.38l3.06,54.24l17.25-0.97l0.34,6.14L251.73,81.57z"/>
					<path class="st0" d="M281.89,80.35L285.44,20l6.73,0.39l-3.2,54.23l17.24,1.01l-0.36,6.12L281.89,80.35z"/>
					<path class="st0" d="M344.41,41.7l-0.95,5.36l-6.29-1.12l1.01-5.7c0.95-5.34-0.6-8.95-5.46-9.81
						c-4.76-0.86-7.55,1.98-8.49,7.34l-5.57,31.49c-0.94,5.34,0.69,8.98,5.46,9.81c4.85,0.86,7.54-2,8.5-7.34l1.37-7.74l6.3,1.12
						l-1.31,7.39c-1.6,9.02-6.91,14.22-16.09,12.6c-9.1-1.61-12.3-8.33-10.71-17.33l5.45-30.81c1.6-9,6.9-14.21,16.01-12.6
						C342.81,25.98,346.01,32.7,344.41,41.7z"/>
					<path class="st0" d="M352,78.57l-5.9,10.91l-5.92-1.88l29.28-54.12l9.3,2.93l-7.21,61.13l-6.43-2.04l1.45-12.32L352,78.57z
						 M354.57,73.32l12.85,4.06l4.03-35.31L354.57,73.32z"/>
				</g>
			</g>
		</g>
	</g>
	<path class="st0" d="M387.06,536.19c-1.24,0-2.43-0.7-3-1.89c-0.79-1.66-0.09-3.64,1.56-4.43
		c86.71-41.45,142.73-130.32,142.73-226.4c0-12.91-1.01-26.05-3.01-39.07c-7.19-45.77-26.96-88.61-57.17-123.88
		c-21.27-24.88-46.75-45.08-75.74-60.06c-1.63-0.84-2.27-2.85-1.43-4.48c0.84-1.63,2.85-2.26,4.48-1.43
		c29.75,15.37,55.91,36.11,77.74,61.64c31,36.21,51.3,80.19,58.68,127.18c2.05,13.36,3.09,26.84,3.09,40.09
		c0,98.62-57.51,189.84-146.51,232.39C388.03,536.08,387.54,536.19,387.06,536.19z"/>
	<path class="st0" d="M166.5,535.52c-0.49,0-0.98-0.11-1.45-0.33c-35.86-17.43-67.7-43.44-92.06-75.22
		c-30.7-40.08-48.8-87.85-52.33-138.14c-0.44-6.29-0.66-12.46-0.66-18.35c0-93.33,50.69-179.57,132.28-225.06
		c1.6-0.89,3.63-0.32,4.52,1.28c0.9,1.6,0.32,3.63-1.28,4.52C76.02,128.53,26.64,212.54,26.64,303.47c0,5.73,0.22,11.75,0.65,17.88
		c3.44,48.99,21.07,95.53,50.98,134.57c23.74,30.97,54.75,56.32,89.69,73.29c1.65,0.8,2.34,2.79,1.53,4.44
		C168.92,534.83,167.74,535.52,166.5,535.52z"/>
</g>
</svg>
